# xmcd
#
# Track frame offsets:
#	150
#	14542
#	21095
#	26171
#	41320
#	46226
#	53159
#	56156
#	66590
#	82756
#	93881
#	124512
#	137209
#	158991
#	169794
#
# Disc length: 2385 seconds
#
# Revision: 0
# Processed by: cddbd v1.5.1PL0 Copyright (c) Steve Scherf et al.
# Submitted via: audiograbber 1.83.01
#
DISCID=c2094f0f
DTITLE=BARBAROS ERKÖSE - Askin Yolu
DYEAR=1900
DGENRE=2005
TTITLE0=Rüya
TTITLE1=Gelin Alma
TTITLE2=Kanun Taksimi
TTITLE3=Hicaz Potpori
TTITLE4=Hüzzam Keman Taksimi
TTITLE5=Segah Pesrevi
TTITLE6=Huzzam Saz Semaisi
TTITLE7=Askin Yolu
TTITLE8=Yalvaris
TTITLE9=Buselik Sirto
TTITLE10=Keman Taksimi
TTITLE11=Nihavent Enstrumental
TTITLE12=Sehnaz Longa
TTITLE13=Bolero
TTITLE14=Esir
EXTD=
EXTT0=
EXTT1=
EXTT2=
EXTT3=
EXTT4=
EXTT5=
EXTT6=
EXTT7=
EXTT8=
EXTT9=
EXTT10=
EXTT11=
EXTT12=
EXTT13=
EXTT14=
PLAYORDER=
